HIERARCHY
ROOT Elbow
{
	OFFSET	0.00	0.00	0.00
	CHANNELS 6 Xposition Yposition Zposition Zrotation Xrotation Yrotation
	JOINT L_Wrist
	{
		OFFSET	 0.208349	 0.000000	 0.000000
		CHANNELS 3 Zrotation Xrotation Yrotation
		JOINT L_index_Proximal
		{
			OFFSET	 0.093499	 0.010637	-0.002084
			CHANNELS 3 Zrotation Xrotation Yrotation
			JOINT L_index_b
			{
				OFFSET	 0.033152	 0.000000	 0.000000
				CHANNELS 3 Zrotation Xrotation Yrotation
				JOINT L_index_c
				{
					OFFSET	 0.018651	 0.000000	 0.000000
					CHANNELS 3 Zrotation Xrotation Yrotation
					End Site
					{
						OFFSET	 0.018651	 0.000000	 0.000000
					}
				}
			}
		}
		JOINT L_middle_Proximal
		{
			OFFSET	 0.090632	-0.006115	-0.003750
			CHANNELS 3 Zrotation Xrotation Yrotation
			JOINT L_middle_b
			{
				OFFSET	 0.037195	 0.000000	 0.000000
				CHANNELS 3 Zrotation Xrotation Yrotation
				JOINT L_middle_c
				{
					OFFSET	 0.021943	 0.000000	 0.000000
					CHANNELS 3 Zrotation Xrotation Yrotation
					End Site
					{
						OFFSET	 0.021943	 0.000000	 0.000000
					}
				}
			}
		}
		JOINT L_pinky_Proximal
		{
			OFFSET	 0.074015	-0.035449	-0.000417
			CHANNELS 3 Zrotation Xrotation Yrotation
			JOINT L_pinky_b
			{
				OFFSET	 0.027285	 0.000000	 0.000000
				CHANNELS 3 Zrotation Xrotation Yrotation
				JOINT L_pinky_c
				{
					OFFSET	 0.015093	 0.000000	 0.000000
					CHANNELS 3 Zrotation Xrotation Yrotation
					End Site
					{
						OFFSET	 0.015093	 0.000000	 0.000000
					}
				}
			}
		}
		JOINT L_ring_Proximal
		{
			OFFSET	 0.082801	-0.021859	-0.003750
			CHANNELS 3 Zrotation Xrotation Yrotation
			JOINT L_ring_b
			{
				OFFSET	 0.034478	 0.000000	 0.000000
				CHANNELS 3 Zrotation Xrotation Yrotation
				JOINT L_ring_c
				{
					OFFSET	 0.021377	 0.000000	 0.000000
					CHANNELS 3 Zrotation Xrotation Yrotation
					End Site
					{
						OFFSET	 0.021377	 0.000000	 0.000000
					}
				}
			}
		}
		JOINT L_thumb_Proximal
		{
			OFFSET	 0.030306	 0.018528	 0.004584
			CHANNELS 3 Zrotation Xrotation Yrotation
			JOINT L_thumb_a
			{
				OFFSET	 0.038520	 0.000000	 0.000000
				CHANNELS 3 Zrotation Xrotation Yrotation
				JOINT L_thumb_b
				{
					OFFSET	 0.026310	 0.000000	 0.000000
					CHANNELS 3 Zrotation Xrotation Yrotation
					End Site
					{
						OFFSET	 0.026310	 0.000000	 0.000000
					}
				}
			}
		}
	}
}
MOTION
Frames:    7
Frame Time: 0.01666667
 0.651386	 0.313192	 0.665846	 38.046490	 78.301270	 54.850720	 0.871854	 3.512084	 20.369370	-1.086010	 0.545517	-63.394370	-2.667327	 2.224807	-79.659480	 1.248223	-0.512825	-44.668530	-11.445340	-7.089453	-67.747530	 5.340141	-5.348210	-90.086700	 7.525240	-3.312443	-47.467040	-35.781880	-13.197570	-70.762410	-3.160352	 2.808433	-83.248690	-0.412430	 0.187808	-48.963390	-21.700130	-8.865789	-75.141510	 4.644043	-4.719210	-90.920910	 5.278407	-2.040745	-42.252030	 56.708840	 61.066440	-13.598980	-4.012671	-0.002816	 0.080480	-4.545594	 0.531090	-13.321290
 0.651291	 0.313140	 0.665856	 38.324670	 78.298120	 54.576610	 0.858223	 3.508703	 20.348900	-1.103617	 0.559420	-63.502610	-2.633132	 2.199563	-79.743920	 1.303656	-0.534739	-44.603970	-11.469070	-7.070004	-67.781650	 5.357316	-5.367546	-90.109590	 7.616276	-3.344498	-47.364920	-35.755180	-13.214230	-70.798500	-3.162658	 2.813452	-83.308600	-0.370707	 0.168518	-48.891380	-21.707720	-8.857777	-75.169320	 4.677201	-4.757108	-90.971770	 5.343533	-2.060493	-42.150100	 56.689270	 61.068610	-13.594280	-3.992641	-0.004033	 0.115396	-4.484376	 0.523573	-13.312060
 0.651318	 0.313149	 0.665857	 38.370430	 78.291340	 54.533620	 0.857639	 3.506346	 20.334540	-1.091041	 0.550378	-63.516070	-2.598825	 2.172733	-79.791400	 1.339431	-0.549553	-44.614400	-11.471840	-7.067144	-67.808500	 5.344251	-5.354798	-90.113170	 7.631742	-3.350170	-47.350430	-35.754180	-13.215460	-70.795080	-3.162866	 2.813899	-83.313710	-0.361877	 0.164479	-48.884740	-21.707700	-8.857605	-75.173790	 4.670695	-4.750776	-90.975130	 5.355934	-2.064719	-42.139740	 56.711090	 61.063070	-13.616610	-3.998290	-0.004254	 0.121173	-4.502526	 0.525267	-13.301070
 0.651431	 0.312980	 0.665958	 38.173410	 78.297500	 54.744800	 0.886356	 3.498012	 20.283870	-1.074942	 0.538538	-63.501720	-2.629548	 2.198828	-79.802060	 1.315329	-0.539837	-44.626860	-11.448320	-7.086214	-67.782880	 5.351708	-5.362986	-90.120760	 7.660622	-3.363440	-47.357570	-35.727410	-13.233080	-70.823710	-3.180782	 2.829432	-83.305410	-0.372492	 0.169236	-48.870500	-21.679890	-8.881388	-75.194630	 4.654219	-4.733090	-90.963810	 5.375237	-2.071840	-42.133380	 56.785850	 61.052000	-13.650090	-3.993515	-0.004762	 0.136478	-4.554032	 0.531266	-13.301050
 0.651363	 0.312867	 0.666017	 38.266880	 78.288150	 54.660000	 0.891139	 3.496465	 20.274560	-1.085965	 0.546813	-63.526730	-2.593889	 2.169075	-79.803730	 1.384572	-0.567607	-44.580670	-11.460660	-7.077053	-67.763960	 5.356035	-5.368863	-90.137360	 7.675606	-3.368277	-47.335590	-35.710430	-13.245690	-70.829760	-3.191447	 2.839753	-83.322590	-0.387425	 0.175875	-48.833550	-21.672990	-8.887897	-75.186120	 4.665356	-4.746468	-90.988630	 5.388811	-2.075110	-42.097080	 56.939380	 61.024110	-13.746220	-3.981054	-0.005948	 0.171130	-4.538477	 0.529357	-13.298990
 0.651228	 0.312779	 0.665926	 38.889800	 78.200360	 54.075400	 0.923047	 3.490252	 20.236800	-1.188365	 0.622169	-63.604850	-2.722792	 2.272691	-79.699710	 1.320237	-0.538889	-44.405760	-11.541860	-7.012586	-67.802640	 5.294285	-5.306965	-90.137410	 7.651861	-3.347252	-47.202440	-35.693810	-13.254750	-70.863800	-3.260088	 2.902400	-83.353150	-0.402968	 0.182643	-48.761970	-21.702230	-8.859411	-75.241160	 4.590294	-4.668426	-90.968070	 5.366578	-2.064966	-42.067790	 57.155740	 60.951750	-14.057690	-3.972575	-0.004358	 0.126049	-4.404217	 0.519621	-13.451340
 0.651215	 0.312768	 0.665877	 39.193770	 78.170780	 53.787410	 0.920689	 3.490001	 20.235260	-1.256738	 0.673262	-63.709350	-2.817821	 2.352105	-79.701640	 1.300713	-0.529359	-44.288410	-11.595290	-6.969448	-67.850590	 5.220780	-5.233854	-90.143440	 7.578147	-3.310112	-47.141580	-35.704460	-13.248280	-70.847610	-3.305340	 2.943697	-83.372500	-0.431088	 0.195154	-48.713970	-21.730390	-8.834351	-75.241040	 4.540350	-4.618207	-90.975210	 5.333166	-2.049541	-42.020080	 57.196170	 60.940210	-14.104820	-3.956652	-0.003075	 0.088821	-4.432741	 0.521697	-13.417890
